<!DOCTYPE svg PUBLIC "-//W3C//DTD SVG 1.1//EN" "http://www.w3.org/Graphics/SVG/1.1/DTD/svg11.dtd">
<!-- Uploaded to: SVG Repo, www.svgrepo.com, Transformed by: SVG Repo Mixer Tools -->
<svg width="800px" height="800px" viewBox="0 0 14 14" role="img" focusable="false" aria-hidden="true" xmlns="http://www.w3.org/2000/svg" fill="#000000">
<g id="SVGRepo_bgCarrier" stroke-width="0"/>
<g id="SVGRepo_tracerCarrier" stroke-linecap="round" stroke-linejoin="round"/>
<g id="SVGRepo_iconCarrier">
<path fill="#b0b0b0" d="M13 5.2V4h-3V1H8.8v3H7.6V1H6.4v3H5.2V1H4v3H1v1.2h3v1.2H1v1.2h3v1.2H1V10h3v3h1.2v-3h1.2v3h1.2v-3h1.2v3H10v-3h3V8.8h-3V7.6h3V6.4h-3V5.2h3z"/>
<path fill="#7c09ff" d="M2.2 3.4v7.2c0 .66.54 1.2 1.2 1.2h7.2c.66 0 1.2-.54 1.2-1.2V3.4c0-.66-.54-1.2-1.2-1.2H3.4c-.66 0-1.2.54-1.2 1.2z"/>
<path fill="#a3a3a3" d="M9.1 9.1H4.9c-.33 0-.6-.27-.6-.6v-3c0-.33.27-.6.6-.6h4.2c.33 0 .6.27.6.6v3c0 .33-.27.6-.6.6z"/>
</g>
</svg>